<svg xmlns="http://www.w3.org/2000/svg" width="23.85" height="22.949" viewBox="0 0 23.85 22.949">
  <path id="Path_3105" data-name="Path 3105" d="M538.055,361.3a2.615,2.615,0,0,1-1.541-.51,2.583,2.583,0,0,1-.953-2.931l1.292-3.974a1.406,1.406,0,0,0-.512-1.575l-3.381-2.456a2.621,2.621,0,0,1,1.541-4.742h4.179a1.405,1.405,0,0,0,1.34-.974l1.292-3.974a2.622,2.622,0,0,1,4.986,0l1.291,3.974a1.406,1.406,0,0,0,1.34.974h4.179a2.622,2.622,0,0,1,1.541,4.742l-3.381,2.456a1.405,1.405,0,0,0-.512,1.575l1.291,3.974a2.622,2.622,0,0,1-4.034,2.931l-3.381-2.456a1.405,1.405,0,0,0-1.656,0L539.6,360.79a2.613,2.613,0,0,1-1.541.51Zm5.75-4.449a2.616,2.616,0,0,1,1.54.5l3.381,2.456a1.409,1.409,0,0,0,2.168-1.575l-1.291-3.974a2.615,2.615,0,0,1,.953-2.931l3.381-2.456a1.409,1.409,0,0,0-.828-2.549h-4.179a2.615,2.615,0,0,1-2.493-1.811l-1.291-3.974a1.409,1.409,0,0,0-2.68,0l-1.291,3.974a2.614,2.614,0,0,1-2.493,1.811H534.5a1.409,1.409,0,0,0-.828,2.549l3.381,2.456a2.615,2.615,0,0,1,.952,2.931l-1.292,3.974a1.409,1.409,0,0,0,2.168,1.575l3.381-2.456a2.617,2.617,0,0,1,1.541-.5Z" transform="translate(-531.879 -338.351)" fill="#294366" opacity="0.5"/>
</svg>
