<?xml version="1.0" encoding="utf-8"?>
<!-- Generator: Adobe Illustrator 23.0.3, SVG Export Plug-In . SVG Version: 6.00 Build 0)  -->
<svg version="1.1" id="Layer_1" xmlns="http://www.w3.org/2000/svg" xmlns:xlink="http://www.w3.org/1999/xlink" x="0px" y="0px"
	 viewBox="0 0 22 22" style="enable-background:new 0 0 22 22;" xml:space="preserve">
<style type="text/css">
	.st0{fill:#00C2CB;}
	.st1{fill:#FFFFFF;fill-opacity:0;}
	.st2{fill:#FFFFFF;}
</style>
<g>
	<g id="Artboard_1">
		<g id="Group_9611" transform="translate(-33 -32)">
			<circle id="Ellipse_84" class="st0" cx="44" cy="43" r="10"/>
			<g transform="translate(37.593 36.478)">
				<g id="checkmark" transform="translate(0 0.115)">
					<rect id="Rectangle_1553" x="0.4" y="0.4" class="st1" width="12" height="12"/>
					<path id="Path_3058" class="st2" d="M5.3,9.6C5.2,9.6,5,9.5,4.9,9.4L2.3,6.6c-0.2-0.2-0.2-0.6,0-0.8c0.2-0.2,0.6-0.2,0.8,0
						l2.2,2.4l4.5-4.9c0.2-0.2,0.5-0.2,0.8,0c0.2,0.2,0.2,0.5,0,0.8L5.7,9.4C5.6,9.5,5.5,9.6,5.3,9.6L5.3,9.6z"/>
				</g>
			</g>
		</g>
	</g>
</g>
</svg>
