<svg xmlns="http://www.w3.org/2000/svg" width="23.38" height="22.478" viewBox="0 0 23.38 22.478">
  <path id="Path_3103" data-name="Path 3103" d="M493.69,361.377a2.379,2.379,0,0,1-1.4-.465l-3.381-2.456a1.642,1.642,0,0,0-1.933,0l-3.381,2.456a2.386,2.386,0,0,1-3.673-2.668l1.291-3.974a1.64,1.64,0,0,0-.6-1.838l-3.381-2.456a2.387,2.387,0,0,1,1.4-4.317h4.179a1.64,1.64,0,0,0,1.563-1.136l1.291-3.974a2.387,2.387,0,0,1,4.54,0l1.291,3.974a1.64,1.64,0,0,0,1.563,1.136h4.179a2.387,2.387,0,0,1,1.4,4.317l-3.381,2.456a1.64,1.64,0,0,0-.6,1.838l1.291,3.974a2.351,2.351,0,0,1-.867,2.668,2.38,2.38,0,0,1-1.4.465Z" transform="translate(-476.25 -338.899)" fill="#00c2cb"/>
</svg>
